{
  "asset": {
    "generator": "Khronos glTF Blender I/O v0.9.36",
    "version": "2.0"
  },
  "scene": 0,
  "scenes": [
    {
      "name": "Scene",
      "nodes": [0]
    }
  ],
  "nodes": [
    {
      "mesh": 0,
      "name": "Brain"
    }
  ],
  "meshes": [
    {
      "name": "Mesh",
      "primitives": [
        {
          "attributes": {
            "POSITION": 0,
            "NORMAL": 1
          },
          "indices": 2
        },
        {
          "attributes": {
            "POSITION": 3,
            "NORMAL": 4
          },
          "indices": 5
        },
        {
          "attributes": {
            "POSITION": 6,
            "NORMAL": 7
          },
          "indices": 8
        },
        {
          "attributes": {
            "POSITION": 9,
            "NORMAL": 10
          },
          "indices": 11
        },
        {
          "attributes": {
            "POSITION": 12,
            "NORMAL": 13
          },
          "indices": 14
        }
      ]
    }
  ],
  "accessors": [
    {
      "bufferView": 0,
      "componentType": 5126,
      "count": 1404,
      "max": [3.1726748943328857, 3.9964144229888916, 3.534281015396118],
      "min": [-3.03936505317688, 1.2906895875930786, 0.1593259572982788],
      "type": "VEC3"
    },
    {
      "bufferView": 1,
      "componentType": 5126,
      "count": 1404,
      "type": "VEC3"
    },
    {
      "bufferView": 2,
      "componentType": 5123,
      "count": 8124,
      "type": "SCALAR"
    },
    {
      "bufferView": 3,
      "componentType": 5126,
      "count": 708,
      "max": [0.337645024061203, 6.301595211029053, 1.2119967937469482],
      "min": [-0.2552550137042999, 4.563449859619141, -1.5107033252716064],
      "type": "VEC3"
    },
    {
      "bufferView": 4,
      "componentType": 5126,
      "count": 708,
      "type": "VEC3"
    },
    {
      "bufferView": 5,
      "componentType": 5123,
      "count": 726,
      "type": "SCALAR"
    },
    {
      "bufferView": 6,
      "componentType": 5126,
      "count": 333,
      "max": [2.4704349040985107, 6.181290149688721, 1.6308051347732544],
      "min": [-2.4393150806427, 0.24764461815357208, -2.40350341796875],
      "type": "VEC3"
    },
    {
      "bufferView": 7,
      "componentType": 5126,
      "count": 333,
      "type": "VEC3"
    },
    {
      "bufferView": 8,
      "componentType": 5123,
      "count": 1956,
      "type": "SCALAR"
    },
    {
      "bufferView": 9,
      "componentType": 5126,
      "count": 5467,
      "max": [3.7555549144744873, 8.35545539855957, 4.663416385650635],
      "min": [-0.11906500160694122, 2.3305206298828125, -4.86854362487793],
      "type": "VEC3"
    },
    {
      "bufferView": 10,
      "componentType": 5126,
      "count": 5467,
      "type": "VEC3"
    },
    {
      "bufferView": 11,
      "componentType": 5123,
      "count": 5535,
      "type": "SCALAR"
    },
    {
      "bufferView": 12,
      "componentType": 5126,
      "count": 5467,
      "max": [0.11906500160694122, 8.35545539855957, 4.663416385650635],
      "min": [-3.7555549144744873, 2.3305206298828125, -4.86854362487793],
      "type": "VEC3"
    },
    {
      "bufferView": 13,
      "componentType": 5126,
      "count": 5467,
      "type": "VEC3"
    },
    {
      "bufferView": 14,
      "componentType": 5123,
      "count": 5535,
      "type": "SCALAR"
    }
  ],
  "bufferViews": [
    {
      "buffer": 0,
      "byteLength": 16848,
      "byteOffset": 0
    },
    {
      "buffer": 0,
      "byteLength": 16848,
      "byteOffset": 16848
    },
    {
      "buffer": 0,
      "byteLength": 16248,
      "byteOffset": 33696
    },
    {
      "buffer": 0,
      "byteLength": 8496,
      "byteOffset": 49944
    },
    {
      "buffer": 0,
      "byteLength": 8496,
      "byteOffset": 58440
    },
    {
      "buffer": 0,
      "byteLength": 1452,
      "byteOffset": 66936
    },
    {
      "buffer": 0,
      "byteLength": 3996,
      "byteOffset": 68388
    },
    {
      "buffer": 0,
      "byteLength": 3996,
      "byteOffset": 72384
    },
    {
      "buffer": 0,
      "byteLength": 3912,
      "byteOffset": 76380
    },
    {
      "buffer": 0,
      "byteLength": 65604,
      "byteOffset": 80292
    },
    {
      "buffer": 0,
      "byteLength": 65604,
      "byteOffset": 145896
    },
    {
      "buffer": 0,
      "byteLength": 11070,
      "byteOffset": 211500
    },
    {
      "buffer": 0,
      "byteLength": 65604,
      "byteOffset": 222572
    },
    {
      "buffer": 0,
      "byteLength": 65604,
      "byteOffset": 288176
    },
    {
      "buffer": 0,
      "byteLength": 11070,
      "byteOffset": 353780
    }
  ],
  "buffers": [
    {
      "byteLength": 364852,
      "uri": "data:application/octet-stream;base64,"
    }
  ]
}
