{
  "asset": {
    "generator": "Khronos glTF Blender I/O v0.9.36",
    "version": "2.0"
  },
  "scene": 0,
  "scenes": [
    {
      "name": "Scene",
      "nodes": [0]
    }
  ],
  "nodes": [
    {
      "mesh": 0,
      "name": "Daniel"
    }
  ],
  "meshes": [
    {
      "name": "Mesh",
      "primitives": [
        {
          "attributes": {
            "POSITION": 0,
            "NORMAL": 1,
            "TEXCOORD_0": 2
          },
          "indices": 3
        }
      ]
    }
  ],
  "accessors": [
    {
      "bufferView": 0,
      "componentType": 5126,
      "count": 51939,
      "max": [1.337395429611206, 2.125600814819336, 1.3355376720428467],
      "min": [-1.384559154510498, -1.8630274534225464, -0.7615306973457336],
      "type": "VEC3"
    },
    {
      "bufferView": 1,
      "componentType": 5126,
      "count": 51939,
      "type": "VEC3"
    },
    {
      "bufferView": 2,
      "componentType": 5126,
      "count": 51939,
      "type": "VEC2"
    },
    {
      "bufferView": 3,
      "componentType": 5123,
      "count": 227295,
      "type": "SCALAR"
    }
  ],
  "bufferViews": [
    {
      "buffer": 0,
      "byteLength": 623268,
      "byteOffset": 0
    },
    {
      "buffer": 0,
      "byteLength": 623268,
      "byteOffset": 623268
    },
    {
      "buffer": 0,
      "byteLength": 415512,
      "byteOffset": 1246536
    },
    {
      "buffer": 0,
      "byteLength": 454590,
      "byteOffset": 1662048
    }
  ],
  "buffers": [
    {
      "byteLength": 2116640,
      "uri": "data:application/octet-stream;base64,"
    }
  ]
}
