{
  "asset": {
    "generator": "Khronos glTF Blender I/O v0.9.36",
    "version": "2.0"
  },
  "scene": 0,
  "scenes": [
    {
      "name": "Scene",
      "nodes": [0]
    }
  ],
  "nodes": [
    {
      "mesh": 0,
      "name": "Headset"
    }
  ],
  "meshes": [
    {
      "name": "Mesh",
      "primitives": [
        {
          "attributes": {
            "POSITION": 0,
            "NORMAL": 1,
            "TEXCOORD_0": 2
          },
          "indices": 3
        },
        {
          "attributes": {
            "POSITION": 4,
            "NORMAL": 5,
            "TEXCOORD_0": 6
          },
          "indices": 7
        },
        {
          "attributes": {
            "POSITION": 8,
            "NORMAL": 9,
            "TEXCOORD_0": 10
          },
          "indices": 11
        },
        {
          "attributes": {
            "POSITION": 12,
            "NORMAL": 13,
            "TEXCOORD_0": 14
          },
          "indices": 15
        }
      ]
    }
  ],
  "accessors": [
    {
      "bufferView": 0,
      "componentType": 5126,
      "count": 2055,
      "max": [0.34008392691612244, 0.22563302516937256, 0.5207386016845703],
      "min": [-0.4331924021244049, -0.2037510871887207, 0.23923154175281525],
      "type": "VEC3"
    },
    {
      "bufferView": 1,
      "componentType": 5126,
      "count": 2055,
      "type": "VEC3"
    },
    {
      "bufferView": 2,
      "componentType": 5126,
      "count": 2055,
      "type": "VEC2"
    },
    {
      "bufferView": 3,
      "componentType": 5123,
      "count": 6564,
      "type": "SCALAR"
    },
    {
      "bufferView": 4,
      "componentType": 5126,
      "count": 1420,
      "max": [0.3696882128715515, 0.15036427974700928, 0.5219547152519226],
      "min": [-0.4623386263847351, -0.13370728492736816, 0.24285058677196503],
      "type": "VEC3"
    },
    {
      "bufferView": 5,
      "componentType": 5126,
      "count": 1420,
      "type": "VEC3"
    },
    {
      "bufferView": 6,
      "componentType": 5126,
      "count": 1420,
      "type": "VEC2"
    },
    {
      "bufferView": 7,
      "componentType": 5123,
      "count": 6528,
      "type": "SCALAR"
    },
    {
      "bufferView": 8,
      "componentType": 5126,
      "count": 1408,
      "max": [0.36647820472717285, 0.0944986343383789, 0.4571550786495209],
      "min": [-0.4630432724952698, -0.07505357265472412, 0.29027366638183594],
      "type": "VEC3"
    },
    {
      "bufferView": 9,
      "componentType": 5126,
      "count": 1408,
      "type": "VEC3"
    },
    {
      "bufferView": 10,
      "componentType": 5126,
      "count": 1408,
      "type": "VEC2"
    },
    {
      "bufferView": 11,
      "componentType": 5123,
      "count": 7116,
      "type": "SCALAR"
    },
    {
      "bufferView": 12,
      "componentType": 5126,
      "count": 1299,
      "max": [0.4161056876182556, 0.26788437366485596, 0.2807585299015045],
      "min": [-0.5011314153671265, -0.09263968467712402, -0.23283220827579498],
      "type": "VEC3"
    },
    {
      "bufferView": 13,
      "componentType": 5126,
      "count": 1299,
      "type": "VEC3"
    },
    {
      "bufferView": 14,
      "componentType": 5126,
      "count": 1299,
      "type": "VEC2"
    },
    {
      "bufferView": 15,
      "componentType": 5123,
      "count": 5520,
      "type": "SCALAR"
    }
  ],
  "bufferViews": [
    {
      "buffer": 0,
      "byteLength": 24660,
      "byteOffset": 0
    },
    {
      "buffer": 0,
      "byteLength": 24660,
      "byteOffset": 24660
    },
    {
      "buffer": 0,
      "byteLength": 16440,
      "byteOffset": 49320
    },
    {
      "buffer": 0,
      "byteLength": 13128,
      "byteOffset": 65760
    },
    {
      "buffer": 0,
      "byteLength": 17040,
      "byteOffset": 78888
    },
    {
      "buffer": 0,
      "byteLength": 17040,
      "byteOffset": 95928
    },
    {
      "buffer": 0,
      "byteLength": 11360,
      "byteOffset": 112968
    },
    {
      "buffer": 0,
      "byteLength": 13056,
      "byteOffset": 124328
    },
    {
      "buffer": 0,
      "byteLength": 16896,
      "byteOffset": 137384
    },
    {
      "buffer": 0,
      "byteLength": 16896,
      "byteOffset": 154280
    },
    {
      "buffer": 0,
      "byteLength": 11264,
      "byteOffset": 171176
    },
    {
      "buffer": 0,
      "byteLength": 14232,
      "byteOffset": 182440
    },
    {
      "buffer": 0,
      "byteLength": 15588,
      "byteOffset": 196672
    },
    {
      "buffer": 0,
      "byteLength": 15588,
      "byteOffset": 212260
    },
    {
      "buffer": 0,
      "byteLength": 10392,
      "byteOffset": 227848
    },
    {
      "buffer": 0,
      "byteLength": 11040,
      "byteOffset": 238240
    }
  ],
  "buffers": [
    {
      "byteLength": 249280,
      "uri": "data:application/octet-stream;base64,"
    }
  ]
}
