{
  "asset": {
    "generator": "Khronos glTF Blender I/O v0.9.36",
    "version": "2.0"
  },
  "scene": 0,
  "scenes": [
    {
      "name": "Scene",
      "nodes": [0]
    }
  ],
  "nodes": [
    {
      "mesh": 0,
      "name": "Robot"
    }
  ],
  "materials": [
    {
      "doubleSided": true,
      "name": "Material_1",
      "pbrMetallicRoughness": {
        "baseColorFactor": [0.006048833951354027, 0.016807381063699722, 0.13286834955215454, 1],
        "metallicFactor": 0.5,
        "roughnessFactor": 0.5
      }
    },
    {
      "doubleSided": true,
      "name": "Material_2",
      "pbrMetallicRoughness": {
        "baseColorFactor": [0.012983039021492004, 0.06480327248573303, 0.8307701349258423, 1],
        "metallicFactor": 0.5,
        "roughnessFactor": 0.5
      }
    },
    {
      "doubleSided": true,
      "name": "Material_3",
      "pbrMetallicRoughness": {
        "baseColorFactor": [0.01032982487231493, 0.04091520607471466, 0.47932031750679016, 1],
        "metallicFactor": 0.5,
        "roughnessFactor": 0.5
      }
    },
    {
      "doubleSided": true,
      "name": "Material_4",
      "pbrMetallicRoughness": {
        "baseColorFactor": [0.15896087884902954, 0.2541521489620209, 0.8227859139442444, 1],
        "metallicFactor": 0.5,
        "roughnessFactor": 0.5
      }
    },
    {
      "doubleSided": true,
      "name": "Material_5",
      "pbrMetallicRoughness": {
        "baseColorFactor": [0.800000011920929, 0.800000011920929, 0.800000011920929, 1],
        "metallicFactor": 0,
        "roughnessFactor": 0.3545454740524292
      }
    }
  ],
  "meshes": [
    {
      "name": "Mesh",
      "primitives": [
        {
          "attributes": {
            "POSITION": 0,
            "NORMAL": 1,
            "TEXCOORD_0": 2
          },
          "indices": 3,
          "material": 0
        },
        {
          "attributes": {
            "POSITION": 4,
            "NORMAL": 5,
            "TEXCOORD_0": 6
          },
          "indices": 7,
          "material": 1
        },
        {
          "attributes": {
            "POSITION": 8,
            "NORMAL": 9,
            "TEXCOORD_0": 10
          },
          "indices": 11,
          "material": 2
        },
        {
          "attributes": {
            "POSITION": 12,
            "NORMAL": 13,
            "TEXCOORD_0": 14
          },
          "indices": 15,
          "material": 3
        },
        {
          "attributes": {
            "POSITION": 16,
            "NORMAL": 17,
            "TEXCOORD_0": 18
          },
          "indices": 19,
          "material": 4
        }
      ]
    }
  ],
  "accessors": [
    {
      "bufferView": 0,
      "componentType": 5126,
      "count": 3348,
      "max": [1.1987218856811523, 2.180185556411743, 0.36896854639053345],
      "min": [-1.1987192630767822, 0.7747305631637573, -0.3085469603538513],
      "type": "VEC3"
    },
    {
      "bufferView": 1,
      "componentType": 5126,
      "count": 3348,
      "type": "VEC3"
    },
    {
      "bufferView": 2,
      "componentType": 5126,
      "count": 3348,
      "type": "VEC2"
    },
    {
      "bufferView": 3,
      "componentType": 5123,
      "count": 12768,
      "type": "SCALAR"
    },
    {
      "bufferView": 4,
      "componentType": 5126,
      "count": 2507,
      "max": [1.390883207321167, 2.4469408988952637, 0.38622400164604187],
      "min": [-1.390877366065979, -0.002542320406064391, -0.2865442931652069],
      "type": "VEC3"
    },
    {
      "bufferView": 5,
      "componentType": 5126,
      "count": 2507,
      "type": "VEC3"
    },
    {
      "bufferView": 6,
      "componentType": 5126,
      "count": 2507,
      "type": "VEC2"
    },
    {
      "bufferView": 7,
      "componentType": 5123,
      "count": 8994,
      "type": "SCALAR"
    },
    {
      "bufferView": 8,
      "componentType": 5126,
      "count": 492,
      "max": [0.5029987096786499, 1.7346652746200562, 0.3786258101463318],
      "min": [-0.5029987096786499, 0.031082604080438614, -0.14495910704135895],
      "type": "VEC3"
    },
    {
      "bufferView": 9,
      "componentType": 5126,
      "count": 492,
      "type": "VEC3"
    },
    {
      "bufferView": 10,
      "componentType": 5126,
      "count": 492,
      "type": "VEC2"
    },
    {
      "bufferView": 11,
      "componentType": 5123,
      "count": 1986,
      "type": "SCALAR"
    },
    {
      "bufferView": 12,
      "componentType": 5126,
      "count": 1115,
      "max": [0.38205400109291077, 2.3068416118621826, 0.36282896995544434],
      "min": [-0.38205400109291077, 0.09351544082164764, -0.05259138345718384],
      "type": "VEC3"
    },
    {
      "bufferView": 13,
      "componentType": 5126,
      "count": 1115,
      "type": "VEC3"
    },
    {
      "bufferView": 14,
      "componentType": 5126,
      "count": 1115,
      "type": "VEC2"
    },
    {
      "bufferView": 15,
      "componentType": 5123,
      "count": 5748,
      "type": "SCALAR"
    },
    {
      "bufferView": 16,
      "componentType": 5126,
      "count": 2952,
      "max": [0.2771332263946533, 2.0320422649383545, 0.31509315967559814],
      "min": [-0.2771332263946533, 1.8315290212631226, 0.19454222917556763],
      "type": "VEC3"
    },
    {
      "bufferView": 17,
      "componentType": 5126,
      "count": 2952,
      "type": "VEC3"
    },
    {
      "bufferView": 18,
      "componentType": 5126,
      "count": 2952,
      "type": "VEC2"
    },
    {
      "bufferView": 19,
      "componentType": 5123,
      "count": 11904,
      "type": "SCALAR"
    }
  ],
  "bufferViews": [
    {
      "buffer": 0,
      "byteLength": 40176,
      "byteOffset": 0
    },
    {
      "buffer": 0,
      "byteLength": 40176,
      "byteOffset": 40176
    },
    {
      "buffer": 0,
      "byteLength": 26784,
      "byteOffset": 80352
    },
    {
      "buffer": 0,
      "byteLength": 25536,
      "byteOffset": 107136
    },
    {
      "buffer": 0,
      "byteLength": 30084,
      "byteOffset": 132672
    },
    {
      "buffer": 0,
      "byteLength": 30084,
      "byteOffset": 162756
    },
    {
      "buffer": 0,
      "byteLength": 20056,
      "byteOffset": 192840
    },
    {
      "buffer": 0,
      "byteLength": 17988,
      "byteOffset": 212896
    },
    {
      "buffer": 0,
      "byteLength": 5904,
      "byteOffset": 230884
    },
    {
      "buffer": 0,
      "byteLength": 5904,
      "byteOffset": 236788
    },
    {
      "buffer": 0,
      "byteLength": 3936,
      "byteOffset": 242692
    },
    {
      "buffer": 0,
      "byteLength": 3972,
      "byteOffset": 246628
    },
    {
      "buffer": 0,
      "byteLength": 13380,
      "byteOffset": 250600
    },
    {
      "buffer": 0,
      "byteLength": 13380,
      "byteOffset": 263980
    },
    {
      "buffer": 0,
      "byteLength": 8920,
      "byteOffset": 277360
    },
    {
      "buffer": 0,
      "byteLength": 11496,
      "byteOffset": 286280
    },
    {
      "buffer": 0,
      "byteLength": 35424,
      "byteOffset": 297776
    },
    {
      "buffer": 0,
      "byteLength": 35424,
      "byteOffset": 333200
    },
    {
      "buffer": 0,
      "byteLength": 23616,
      "byteOffset": 368624
    },
    {
      "buffer": 0,
      "byteLength": 23808,
      "byteOffset": 392240
    }
  ],
  "buffers": [
    {
      "byteLength": 416048,
      "uri": "data:application/octet-stream;base64,"
    }
  ]
}
