{
  "asset": {
    "generator": "Khronos glTF Blender I/O v0.9.36",
    "version": "2.0"
  },
  "scene": 0,
  "scenes": [
    {
      "name": "Scene",
      "nodes": [0, 1, 2, 3]
    }
  ],
  "nodes": [
    {
      "mesh": 0,
      "name": "Cerebellum"
    },
    {
      "mesh": 1,
      "name": "Stem"
    },
    {
      "mesh": 2,
      "name": "Left"
    },
    {
      "mesh": 3,
      "name": "Right"
    }
  ],
  "animations": [
    {
      "channels": [
        {
          "sampler": 0,
          "target": {
            "node": 2,
            "path": "scale"
          }
        }
      ],
      "name": "Brain_1Action",
      "samplers": [
        {
          "input": 12,
          "interpolation": "STEP",
          "output": 13
        }
      ]
    }
  ],
  "materials": [
    {
      "doubleSided": true,
      "name": "wire_028089177",
      "pbrMetallicRoughness": {
        "baseColorFactor": [0.800000011920929, 0.800000011920929, 0.800000011920929, 1],
        "metallicFactor": 0,
        "roughnessFactor": 0.5
      }
    },
    {
      "doubleSided": true,
      "name": "wire_134006006",
      "pbrMetallicRoughness": {
        "baseColorFactor": [0.800000011920929, 0.800000011920929, 0.800000011920929, 1],
        "metallicFactor": 0,
        "roughnessFactor": 0.5
      }
    },
    {
      "doubleSided": true,
      "name": "wire_177028149",
      "pbrMetallicRoughness": {
        "baseColorFactor": [0.800000011920929, 0.800000011920929, 0.800000011920929, 1],
        "metallicFactor": 0,
        "roughnessFactor": 0.5
      }
    },
    {
      "doubleSided": true,
      "name": "wire_177028149.002",
      "pbrMetallicRoughness": {
        "baseColorFactor": [0.800000011920929, 0.800000011920929, 0.800000011920929, 1],
        "metallicFactor": 0,
        "roughnessFactor": 0.5
      }
    }
  ],
  "meshes": [
    {
      "name": "Cerebellum",
      "primitives": [
        {
          "attributes": {
            "POSITION": 0,
            "NORMAL": 1
          },
          "indices": 2,
          "material": 0
        }
      ]
    },
    {
      "name": "Stem",
      "primitives": [
        {
          "attributes": {
            "POSITION": 3,
            "NORMAL": 4
          },
          "indices": 5,
          "material": 1
        }
      ]
    },
    {
      "name": "Brain_1",
      "primitives": [
        {
          "attributes": {
            "POSITION": 6,
            "NORMAL": 7
          },
          "indices": 8,
          "material": 2
        }
      ]
    },
    {
      "name": "Brain_1.001_Brain_1.002",
      "primitives": [
        {
          "attributes": {
            "POSITION": 9,
            "NORMAL": 10
          },
          "indices": 11,
          "material": 3
        }
      ]
    }
  ],
  "accessors": [
    {
      "bufferView": 0,
      "componentType": 5126,
      "count": 1404,
      "max": [-0.07966295629739761, -0.0017926692962646484, 1.5863375663757324],
      "min": [-1.767140507698059, -1.3546552658081055, -1.51968252658844],
      "type": "VEC3"
    },
    {
      "bufferView": 1,
      "componentType": 5126,
      "count": 1404,
      "type": "VEC3"
    },
    {
      "bufferView": 2,
      "componentType": 5123,
      "count": 8124,
      "type": "SCALAR"
    },
    {
      "bufferView": 3,
      "componentType": 5126,
      "count": 333,
      "max": [1.201751708984375, 1.0906450748443604, 1.2352174520492554],
      "min": [-0.8154025673866272, -1.8761776685714722, -1.21965754032135],
      "type": "VEC3"
    },
    {
      "bufferView": 4,
      "componentType": 5126,
      "count": 333,
      "type": "VEC3"
    },
    {
      "bufferView": 5,
      "componentType": 5123,
      "count": 1956,
      "type": "SCALAR"
    },
    {
      "bufferView": 6,
      "componentType": 5126,
      "count": 5467,
      "max": [2.434271812438965, 2.177727699279785, 1.8777774572372437],
      "min": [-2.3317081928253174, -0.8347396850585938, -0.05953250080347061],
      "type": "VEC3"
    },
    {
      "bufferView": 7,
      "componentType": 5126,
      "count": 5467,
      "type": "VEC3"
    },
    {
      "bufferView": 8,
      "componentType": 5123,
      "count": 5535,
      "type": "SCALAR"
    },
    {
      "bufferView": 9,
      "componentType": 5126,
      "count": 5467,
      "max": [2.434271812438965, 2.177727699279785, 0.05953250080347061],
      "min": [-2.3317081928253174, -0.8347396850585938, -1.8777774572372437],
      "type": "VEC3"
    },
    {
      "bufferView": 10,
      "componentType": 5126,
      "count": 5467,
      "type": "VEC3"
    },
    {
      "bufferView": 11,
      "componentType": 5123,
      "count": 5535,
      "type": "SCALAR"
    },
    {
      "bufferView": 12,
      "componentType": 5126,
      "count": 1,
      "max": [0.041666666666666664],
      "min": [0.041666666666666664],
      "type": "SCALAR"
    },
    {
      "bufferView": 13,
      "componentType": 5126,
      "count": 1,
      "type": "VEC3"
    }
  ],
  "bufferViews": [
    {
      "buffer": 0,
      "byteLength": 16848,
      "byteOffset": 0
    },
    {
      "buffer": 0,
      "byteLength": 16848,
      "byteOffset": 16848
    },
    {
      "buffer": 0,
      "byteLength": 16248,
      "byteOffset": 33696
    },
    {
      "buffer": 0,
      "byteLength": 3996,
      "byteOffset": 49944
    },
    {
      "buffer": 0,
      "byteLength": 3996,
      "byteOffset": 53940
    },
    {
      "buffer": 0,
      "byteLength": 3912,
      "byteOffset": 57936
    },
    {
      "buffer": 0,
      "byteLength": 65604,
      "byteOffset": 61848
    },
    {
      "buffer": 0,
      "byteLength": 65604,
      "byteOffset": 127452
    },
    {
      "buffer": 0,
      "byteLength": 11070,
      "byteOffset": 193056
    },
    {
      "buffer": 0,
      "byteLength": 65604,
      "byteOffset": 204128
    },
    {
      "buffer": 0,
      "byteLength": 65604,
      "byteOffset": 269732
    },
    {
      "buffer": 0,
      "byteLength": 11070,
      "byteOffset": 335336
    },
    {
      "buffer": 0,
      "byteLength": 4,
      "byteOffset": 346408
    },
    {
      "buffer": 0,
      "byteLength": 12,
      "byteOffset": 346412
    }
  ],
  "buffers": [
    {
      "byteLength": 346424,
      "uri": "data:application/octet-stream;base64,"
    }
  ]
}
