{
  "asset": {
    "generator": "Khronos glTF Blender I/O v0.9.36",
    "version": "2.0"
  },
  "scene": 0,
  "scenes": [
    {
      "name": "Scene",
      "nodes": [0, 1, 2, 3]
    }
  ],
  "nodes": [
    {
      "mesh": 0,
      "name": "Cerebellum"
    },
    {
      "mesh": 1,
      "name": "Stem"
    },
    {
      "mesh": 2,
      "name": "Left"
    },
    {
      "mesh": 3,
      "name": "Right"
    }
  ],
  "animations": [
    {
      "channels": [
        {
          "sampler": 0,
          "target": {
            "node": 2,
            "path": "scale"
          }
        }
      ],
      "name": "Brain_1Action",
      "samplers": [
        {
          "input": 12,
          "interpolation": "STEP",
          "output": 13
        }
      ]
    }
  ],
  "materials": [
    {
      "doubleSided": true,
      "name": "wire_028089177",
      "pbrMetallicRoughness": {
        "baseColorFactor": [0.800000011920929, 0.800000011920929, 0.800000011920929, 1],
        "metallicFactor": 0,
        "roughnessFactor": 0.5
      }
    },
    {
      "doubleSided": true,
      "name": "wire_134006006",
      "pbrMetallicRoughness": {
        "baseColorFactor": [0.800000011920929, 0.800000011920929, 0.800000011920929, 1],
        "metallicFactor": 0,
        "roughnessFactor": 0.5
      }
    },
    {
      "doubleSided": true,
      "name": "wire_177028149",
      "pbrMetallicRoughness": {
        "baseColorFactor": [0.800000011920929, 0.800000011920929, 0.800000011920929, 1],
        "metallicFactor": 0,
        "roughnessFactor": 0.5
      }
    },
    {
      "doubleSided": true,
      "name": "wire_177028149.002",
      "pbrMetallicRoughness": {
        "baseColorFactor": [0.800000011920929, 0.800000011920929, 0.800000011920929, 1],
        "metallicFactor": 0,
        "roughnessFactor": 0.5
      }
    }
  ],
  "meshes": [
    {
      "name": "Cerebellum",
      "primitives": [
        {
          "attributes": {
            "POSITION": 0,
            "NORMAL": 1
          },
          "indices": 2,
          "material": 0
        }
      ]
    },
    {
      "name": "Stem",
      "primitives": [
        {
          "attributes": {
            "POSITION": 3,
            "NORMAL": 4
          },
          "indices": 5,
          "material": 1
        }
      ]
    },
    {
      "name": "Brain_1",
      "primitives": [
        {
          "attributes": {
            "POSITION": 6,
            "NORMAL": 7
          },
          "indices": 8,
          "material": 2
        }
      ]
    },
    {
      "name": "Brain_1.001_Brain_1.002",
      "primitives": [
        {
          "attributes": {
            "POSITION": 9,
            "NORMAL": 10
          },
          "indices": 11,
          "material": 3
        }
      ]
    }
  ],
  "accessors": [
    {
      "bufferView": 0,
      "componentType": 5126,
      "count": 1404,
      "max": [3.172675132751465, -0.003585338592529297, 3.534281015396118],
      "min": [-3.03936505317688, -2.709310531616211, 0.1593259572982788],
      "type": "VEC3"
    },
    {
      "bufferView": 1,
      "componentType": 5126,
      "count": 1404,
      "type": "VEC3"
    },
    {
      "bufferView": 2,
      "componentType": 5123,
      "count": 8124,
      "type": "SCALAR"
    },
    {
      "bufferView": 3,
      "componentType": 5126,
      "count": 333,
      "max": [2.4704349040985107, 2.1812901496887207, 1.6308051347732544],
      "min": [-2.4393150806427, -3.7523553371429443, -2.40350341796875],
      "type": "VEC3"
    },
    {
      "bufferView": 4,
      "componentType": 5126,
      "count": 333,
      "type": "VEC3"
    },
    {
      "bufferView": 5,
      "componentType": 5123,
      "count": 1956,
      "type": "SCALAR"
    },
    {
      "bufferView": 6,
      "componentType": 5126,
      "count": 5467,
      "max": [3.7555549144744873, 4.35545539855957, 4.663416385650635],
      "min": [-0.11906500160694122, -1.6694793701171875, -4.86854362487793],
      "type": "VEC3"
    },
    {
      "bufferView": 7,
      "componentType": 5126,
      "count": 5467,
      "type": "VEC3"
    },
    {
      "bufferView": 8,
      "componentType": 5123,
      "count": 5535,
      "type": "SCALAR"
    },
    {
      "bufferView": 9,
      "componentType": 5126,
      "count": 5467,
      "max": [0.11906500160694122, 4.35545539855957, 4.663416385650635],
      "min": [-3.7555549144744873, -1.6694793701171875, -4.86854362487793],
      "type": "VEC3"
    },
    {
      "bufferView": 10,
      "componentType": 5126,
      "count": 5467,
      "type": "VEC3"
    },
    {
      "bufferView": 11,
      "componentType": 5123,
      "count": 5535,
      "type": "SCALAR"
    },
    {
      "bufferView": 12,
      "componentType": 5126,
      "count": 1,
      "max": [0.041666666666666664],
      "min": [0.041666666666666664],
      "type": "SCALAR"
    },
    {
      "bufferView": 13,
      "componentType": 5126,
      "count": 1,
      "type": "VEC3"
    }
  ],
  "bufferViews": [
    {
      "buffer": 0,
      "byteLength": 16848,
      "byteOffset": 0
    },
    {
      "buffer": 0,
      "byteLength": 16848,
      "byteOffset": 16848
    },
    {
      "buffer": 0,
      "byteLength": 16248,
      "byteOffset": 33696
    },
    {
      "buffer": 0,
      "byteLength": 3996,
      "byteOffset": 49944
    },
    {
      "buffer": 0,
      "byteLength": 3996,
      "byteOffset": 53940
    },
    {
      "buffer": 0,
      "byteLength": 3912,
      "byteOffset": 57936
    },
    {
      "buffer": 0,
      "byteLength": 65604,
      "byteOffset": 61848
    },
    {
      "buffer": 0,
      "byteLength": 65604,
      "byteOffset": 127452
    },
    {
      "buffer": 0,
      "byteLength": 11070,
      "byteOffset": 193056
    },
    {
      "buffer": 0,
      "byteLength": 65604,
      "byteOffset": 204128
    },
    {
      "buffer": 0,
      "byteLength": 65604,
      "byteOffset": 269732
    },
    {
      "buffer": 0,
      "byteLength": 11070,
      "byteOffset": 335336
    },
    {
      "buffer": 0,
      "byteLength": 4,
      "byteOffset": 346408
    },
    {
      "buffer": 0,
      "byteLength": 12,
      "byteOffset": 346412
    }
  ],
  "buffers": [
    {
      "byteLength": 346424,
      "uri": "data:application/octet-stream;base64,"
    }
  ]
}
