{
  "asset": {
    "generator": "Khronos glTF Blender I/O v0.9.36",
    "version": "2.0"
  },
  "scene": 0,
  "scenes": [
    {
      "name": "Scene",
      "nodes": [0, 1, 2, 3, 4, 5, 6, 7, 8, 9]
    }
  ],
  "nodes": [
    {
      "mesh": 0,
      "name": "Body",
      "scale": [0.1374690979719162, 0.16481946408748627, 0.14617936313152313],
      "translation": [-0.004716366529464722, -0.16479012370109558, 0.02303513139486313]
    },
    {
      "mesh": 1,
      "name": "Mouth",
      "rotation": [0.10455886274576187, 0, 0, 0.9945186972618103],
      "scale": [0.030851831659674644, 0.0028825614135712385, 0.003829358844086528],
      "translation": [-0.00593683123588562, 0.11876523494720459, 0.23057864606380463]
    },
    {
      "mesh": 2,
      "name": "Eyebrows",
      "scale": [0.6728604435920715, 0.06286696344614029, 0.13287107646465302],
      "translation": [-0.008613556623458862, 0.28659379482269287, -0.07078972458839417]
    },
    {
      "mesh": 3,
      "name": "Nose",
      "scale": [0.041948605328798294, 0.041948605328798294, 0.04974960908293724],
      "translation": [-0.005824059247970581, 0.19699275493621826, 0.22534236311912537]
    },
    {
      "mesh": 4,
      "name": "Ears",
      "scale": [0.8134257197380066, 0.8134257197380066, 0.8134257197380066],
      "translation": [-0.00573393702507019, 0.7738867402076721, 0.18094788491725922]
    },
    {
      "mesh": 5,
      "name": "Eyes",
      "rotation": [0, 0.0014425121480599046, 0, 1],
      "scale": [0.030024977400898933, 0.035689402371644974, 0.030024977400898933],
      "translation": [-0.005354344844818115, 0.25108450651168823, 0.1321924477815628]
    },
    {
      "mesh": 6,
      "name": "Glasses",
      "rotation": [
        -0.08162866532802582, -0.08162858337163925, -0.7023792862892151, 0.7023794054985046
      ],
      "scale": [0.007544271647930145, 0.007544271647930145, 0.007544271647930145],
      "translation": [-0.005362451076507568, 0.2579340934753418, 0.23434315621852875]
    },
    {
      "mesh": 7,
      "name": "Head",
      "scale": [0.6321321725845337, 0.7437575459480286, 0.694110095500946],
      "translation": [-0.0055595338344573975, 0.21550625562667847, 0.13275033235549927]
    },
    {
      "mesh": 8,
      "name": "SideHair",
      "rotation": [1, 0, 0, 0],
      "scale": [-0.6769150495529175, -0.9140953421592712, -0.7270541191101074],
      "translation": [-0.007829993963241577, 0.18018770217895508, 0.049674563109874725]
    },
    {
      "mesh": 9,
      "name": "TopHair",
      "rotation": [0, 1, 0, 1.6292068494294654e-7],
      "scale": [0.7377203106880188, 0.8501463532447815, 0.7270541191101074],
      "translation": [-0.007829993963241577, 0.18018770217895508, 0.049674563109874725]
    }
  ],
  "meshes": [
    {
      "name": "Cube.008",
      "primitives": [
        {
          "attributes": {
            "POSITION": 0,
            "NORMAL": 1,
            "TEXCOORD_0": 2
          },
          "indices": 3
        }
      ]
    },
    {
      "name": "Cube.011",
      "primitives": [
        {
          "attributes": {
            "POSITION": 4,
            "NORMAL": 5,
            "TEXCOORD_0": 6
          },
          "indices": 7
        }
      ]
    },
    {
      "name": "Cube.012",
      "primitives": [
        {
          "attributes": {
            "POSITION": 8,
            "NORMAL": 9,
            "TEXCOORD_0": 10
          },
          "indices": 11
        }
      ]
    },
    {
      "name": "Cube.013",
      "primitives": [
        {
          "attributes": {
            "POSITION": 12,
            "NORMAL": 13,
            "TEXCOORD_0": 14
          },
          "indices": 15
        }
      ]
    },
    {
      "name": "Cube.014",
      "primitives": [
        {
          "attributes": {
            "POSITION": 16,
            "NORMAL": 17,
            "TEXCOORD_0": 18
          },
          "indices": 19
        }
      ]
    },
    {
      "name": "Cube.002",
      "primitives": [
        {
          "attributes": {
            "POSITION": 20,
            "NORMAL": 21,
            "TEXCOORD_0": 22
          },
          "indices": 23
        }
      ]
    },
    {
      "name": "Cylinder.006",
      "primitives": [
        {
          "attributes": {
            "POSITION": 24,
            "NORMAL": 25,
            "TEXCOORD_0": 26
          },
          "indices": 27
        }
      ]
    },
    {
      "name": "Cube.016",
      "primitives": [
        {
          "attributes": {
            "POSITION": 28,
            "NORMAL": 29,
            "TEXCOORD_0": 30,
            "JOINTS_0": 31,
            "WEIGHTS_0": 32
          },
          "indices": 33
        }
      ]
    },
    {
      "name": "Plane.006",
      "primitives": [
        {
          "attributes": {
            "POSITION": 34,
            "NORMAL": 35
          },
          "indices": 36
        }
      ]
    },
    {
      "name": "Plane.005",
      "primitives": [
        {
          "attributes": {
            "POSITION": 37,
            "NORMAL": 38
          },
          "indices": 39
        }
      ]
    }
  ],
  "accessors": [
    {
      "bufferView": 0,
      "componentType": 5126,
      "count": 20318,
      "max": [1.980048418045044, 1.2568135261535645, 1.2836809158325195],
      "min": [-1.980048418045044, -0.9006993770599365, -1.1349719762802124],
      "type": "VEC3"
    },
    {
      "bufferView": 1,
      "componentType": 5126,
      "count": 20318,
      "type": "VEC3"
    },
    {
      "bufferView": 2,
      "componentType": 5126,
      "count": 20318,
      "type": "VEC2"
    },
    {
      "bufferView": 3,
      "componentType": 5123,
      "count": 79488,
      "type": "SCALAR"
    },
    {
      "bufferView": 4,
      "componentType": 5126,
      "count": 219,
      "max": [1.561781406402588, 5.330126762390137, 1.8750483989715576],
      "min": [-1.5616759061813354, -2.279648780822754, -2.7121310234069824],
      "type": "VEC3"
    },
    {
      "bufferView": 5,
      "componentType": 5126,
      "count": 219,
      "type": "VEC3"
    },
    {
      "bufferView": 6,
      "componentType": 5126,
      "count": 219,
      "type": "VEC2"
    },
    {
      "bufferView": 7,
      "componentType": 5123,
      "count": 840,
      "type": "SCALAR"
    },
    {
      "bufferView": 8,
      "componentType": 5126,
      "count": 9634,
      "max": [0.15553919970989227, 0.253389447927475, 2.134779214859009],
      "min": [-0.15553919970989227, -0.09451327472925186, 1.891580581665039],
      "type": "VEC3"
    },
    {
      "bufferView": 9,
      "componentType": 5126,
      "count": 9634,
      "type": "VEC3"
    },
    {
      "bufferView": 10,
      "componentType": 5126,
      "count": 9634,
      "type": "VEC2"
    },
    {
      "bufferView": 11,
      "componentType": 5123,
      "count": 52224,
      "type": "SCALAR"
    },
    {
      "bufferView": 12,
      "componentType": 5126,
      "count": 453,
      "max": [0.8395062685012817, 0.8395062685012817, 0.8395062685012817],
      "min": [-0.8395062685012817, -0.8395062685012817, -0.8395062685012817],
      "type": "VEC3"
    },
    {
      "bufferView": 13,
      "componentType": 5126,
      "count": 453,
      "type": "VEC3"
    },
    {
      "bufferView": 14,
      "componentType": 5126,
      "count": 453,
      "type": "VEC2"
    },
    {
      "bufferView": 15,
      "componentType": 5123,
      "count": 2304,
      "type": "SCALAR"
    },
    {
      "bufferView": 16,
      "componentType": 5126,
      "count": 786,
      "max": [0.20190589129924774, -0.6323432326316833, -0.08688821643590927],
      "min": [-0.20190589129924774, -0.7362980246543884, -0.14989599585533142],
      "type": "VEC3"
    },
    {
      "bufferView": 17,
      "componentType": 5126,
      "count": 786,
      "type": "VEC3"
    },
    {
      "bufferView": 18,
      "componentType": 5126,
      "count": 786,
      "type": "VEC2"
    },
    {
      "bufferView": 19,
      "componentType": 5123,
      "count": 3456,
      "type": "SCALAR"
    },
    {
      "bufferView": 20,
      "componentType": 5126,
      "count": 2108,
      "max": [2.9222631454467773, 0.2978048026561737, 2.8772056102752686],
      "min": [-2.9222631454467773, -0.7775593996047974, 1.566524863243103],
      "type": "VEC3"
    },
    {
      "bufferView": 21,
      "componentType": 5126,
      "count": 2108,
      "type": "VEC3"
    },
    {
      "bufferView": 22,
      "componentType": 5126,
      "count": 2108,
      "type": "VEC2"
    },
    {
      "bufferView": 23,
      "componentType": 5123,
      "count": 10752,
      "type": "SCALAR"
    },
    {
      "bufferView": 24,
      "componentType": 5126,
      "count": 1720,
      "max": [9.75696086883545, 21.222387313842773, 1.7066725492477417],
      "min": [-6.3249406814575195, -21.217153549194336, -21.12560272216797],
      "type": "VEC3"
    },
    {
      "bufferView": 25,
      "componentType": 5126,
      "count": 1720,
      "type": "VEC3"
    },
    {
      "bufferView": 26,
      "componentType": 5126,
      "count": 1720,
      "type": "VEC2"
    },
    {
      "bufferView": 27,
      "componentType": 5123,
      "count": 9255,
      "type": "SCALAR"
    },
    {
      "bufferView": 28,
      "componentType": 5126,
      "count": 2726,
      "max": [0.21995995938777924, 0.3304729461669922, 0.15073662996292114],
      "min": [-0.21995995938777924, -0.3034743070602417, -0.36361217498779297],
      "type": "VEC3"
    },
    {
      "bufferView": 29,
      "componentType": 5126,
      "count": 2726,
      "type": "VEC3"
    },
    {
      "bufferView": 30,
      "componentType": 5126,
      "count": 2726,
      "type": "VEC2"
    },
    {
      "bufferView": 31,
      "componentType": 5123,
      "count": 2726,
      "type": "VEC4"
    },
    {
      "bufferView": 32,
      "componentType": 5126,
      "count": 2726,
      "type": "VEC4"
    },
    {
      "bufferView": 33,
      "componentType": 5123,
      "count": 12072,
      "type": "SCALAR"
    },
    {
      "bufferView": 34,
      "componentType": 5126,
      "count": 2714,
      "max": [0.2419796735048294, 0.28641030192375183, 0.18720167875289917],
      "min": [-0.24382328987121582, -0.1397508829832077, -0.27780699729919434],
      "type": "VEC3"
    },
    {
      "bufferView": 35,
      "componentType": 5126,
      "count": 2714,
      "type": "VEC3"
    },
    {
      "bufferView": 36,
      "componentType": 5123,
      "count": 16272,
      "type": "SCALAR"
    },
    {
      "bufferView": 37,
      "componentType": 5126,
      "count": 7001,
      "max": [0.19437432289123535, 0.35793253779411316, 0.26702338457107544],
      "min": [-0.1779608279466629, 0.15804588794708252, -0.2380424439907074],
      "type": "VEC3"
    },
    {
      "bufferView": 38,
      "componentType": 5126,
      "count": 7001,
      "type": "VEC3"
    },
    {
      "bufferView": 39,
      "componentType": 5123,
      "count": 41472,
      "type": "SCALAR"
    }
  ],
  "bufferViews": [
    {
      "buffer": 0,
      "byteLength": 243816,
      "byteOffset": 0
    },
    {
      "buffer": 0,
      "byteLength": 243816,
      "byteOffset": 243816
    },
    {
      "buffer": 0,
      "byteLength": 162544,
      "byteOffset": 487632
    },
    {
      "buffer": 0,
      "byteLength": 158976,
      "byteOffset": 650176
    },
    {
      "buffer": 0,
      "byteLength": 2628,
      "byteOffset": 809152
    },
    {
      "buffer": 0,
      "byteLength": 2628,
      "byteOffset": 811780
    },
    {
      "buffer": 0,
      "byteLength": 1752,
      "byteOffset": 814408
    },
    {
      "buffer": 0,
      "byteLength": 1680,
      "byteOffset": 816160
    },
    {
      "buffer": 0,
      "byteLength": 115608,
      "byteOffset": 817840
    },
    {
      "buffer": 0,
      "byteLength": 115608,
      "byteOffset": 933448
    },
    {
      "buffer": 0,
      "byteLength": 77072,
      "byteOffset": 1049056
    },
    {
      "buffer": 0,
      "byteLength": 104448,
      "byteOffset": 1126128
    },
    {
      "buffer": 0,
      "byteLength": 5436,
      "byteOffset": 1230576
    },
    {
      "buffer": 0,
      "byteLength": 5436,
      "byteOffset": 1236012
    },
    {
      "buffer": 0,
      "byteLength": 3624,
      "byteOffset": 1241448
    },
    {
      "buffer": 0,
      "byteLength": 4608,
      "byteOffset": 1245072
    },
    {
      "buffer": 0,
      "byteLength": 9432,
      "byteOffset": 1249680
    },
    {
      "buffer": 0,
      "byteLength": 9432,
      "byteOffset": 1259112
    },
    {
      "buffer": 0,
      "byteLength": 6288,
      "byteOffset": 1268544
    },
    {
      "buffer": 0,
      "byteLength": 6912,
      "byteOffset": 1274832
    },
    {
      "buffer": 0,
      "byteLength": 25296,
      "byteOffset": 1281744
    },
    {
      "buffer": 0,
      "byteLength": 25296,
      "byteOffset": 1307040
    },
    {
      "buffer": 0,
      "byteLength": 16864,
      "byteOffset": 1332336
    },
    {
      "buffer": 0,
      "byteLength": 21504,
      "byteOffset": 1349200
    },
    {
      "buffer": 0,
      "byteLength": 20640,
      "byteOffset": 1370704
    },
    {
      "buffer": 0,
      "byteLength": 20640,
      "byteOffset": 1391344
    },
    {
      "buffer": 0,
      "byteLength": 13760,
      "byteOffset": 1411984
    },
    {
      "buffer": 0,
      "byteLength": 18510,
      "byteOffset": 1425744
    },
    {
      "buffer": 0,
      "byteLength": 32712,
      "byteOffset": 1444256
    },
    {
      "buffer": 0,
      "byteLength": 32712,
      "byteOffset": 1476968
    },
    {
      "buffer": 0,
      "byteLength": 21808,
      "byteOffset": 1509680
    },
    {
      "buffer": 0,
      "byteLength": 21808,
      "byteOffset": 1531488
    },
    {
      "buffer": 0,
      "byteLength": 43616,
      "byteOffset": 1553296
    },
    {
      "buffer": 0,
      "byteLength": 24144,
      "byteOffset": 1596912
    },
    {
      "buffer": 0,
      "byteLength": 32568,
      "byteOffset": 1621056
    },
    {
      "buffer": 0,
      "byteLength": 32568,
      "byteOffset": 1653624
    },
    {
      "buffer": 0,
      "byteLength": 32544,
      "byteOffset": 1686192
    },
    {
      "buffer": 0,
      "byteLength": 84012,
      "byteOffset": 1718736
    },
    {
      "buffer": 0,
      "byteLength": 84012,
      "byteOffset": 1802748
    },
    {
      "buffer": 0,
      "byteLength": 82944,
      "byteOffset": 1886760
    }
  ],
  "buffers": [
    {
      "byteLength": 1969704,
      "uri": "data:application/octet-stream;base64,"
    }
  ]
}
