{
  "asset": {
    "generator": "Khronos glTF Blender I/O v0.9.36",
    "version": "2.0"
  },
  "scene": 0,
  "scenes": [
    {
      "name": "Scene",
      "nodes": [0, 1, 2, 3, 4, 5, 6, 7, 8]
    }
  ],
  "nodes": [
    {
      "mesh": 0,
      "name": "Body"
    },
    {
      "mesh": 1,
      "name": "Eyebrows"
    },
    {
      "mesh": 2,
      "name": "Nose"
    },
    {
      "mesh": 3,
      "name": "Ears"
    },
    {
      "mesh": 4,
      "name": "Eyes"
    },
    {
      "mesh": 5,
      "name": "Glasses"
    },
    {
      "mesh": 6,
      "name": "Head"
    },
    {
      "mesh": 7,
      "name": "SideHair"
    },
    {
      "mesh": 8,
      "name": "TopHair"
    }
  ],
  "meshes": [
    {
      "name": "Cube.008",
      "primitives": [
        {
          "attributes": {
            "POSITION": 0,
            "NORMAL": 1,
            "TEXCOORD_0": 2
          },
          "indices": 3
        }
      ]
    },
    {
      "name": "Cube.012",
      "primitives": [
        {
          "attributes": {
            "POSITION": 4,
            "NORMAL": 5,
            "TEXCOORD_0": 6
          },
          "indices": 7
        }
      ]
    },
    {
      "name": "Cube.013",
      "primitives": [
        {
          "attributes": {
            "POSITION": 8,
            "NORMAL": 9,
            "TEXCOORD_0": 10
          },
          "indices": 11
        }
      ]
    },
    {
      "name": "Cube.014",
      "primitives": [
        {
          "attributes": {
            "POSITION": 12,
            "NORMAL": 13,
            "TEXCOORD_0": 14
          },
          "indices": 15
        }
      ]
    },
    {
      "name": "Cube.002",
      "primitives": [
        {
          "attributes": {
            "POSITION": 16,
            "NORMAL": 17,
            "TEXCOORD_0": 18
          },
          "indices": 19
        }
      ]
    },
    {
      "name": "Cylinder.006",
      "primitives": [
        {
          "attributes": {
            "POSITION": 20,
            "NORMAL": 21,
            "TEXCOORD_0": 22
          },
          "indices": 23
        }
      ]
    },
    {
      "name": "Cube.016",
      "primitives": [
        {
          "attributes": {
            "POSITION": 24,
            "NORMAL": 25,
            "TEXCOORD_0": 26
          },
          "indices": 27
        }
      ]
    },
    {
      "name": "Plane.006",
      "primitives": [
        {
          "attributes": {
            "POSITION": 28,
            "NORMAL": 29
          },
          "indices": 30
        }
      ]
    },
    {
      "name": "Plane.005",
      "primitives": [
        {
          "attributes": {
            "POSITION": 31,
            "NORMAL": 32
          },
          "indices": 33
        }
      ]
    }
  ],
  "accessors": [
    {
      "bufferView": 0,
      "componentType": 5126,
      "count": 24763,
      "max": [1.337395429611206, 0.2117859572172165, 1.05341374874115],
      "min": [-1.384559154510498, -1.5662145614624023, -0.714371919631958],
      "type": "VEC3"
    },
    {
      "bufferView": 1,
      "componentType": 5126,
      "count": 24763,
      "type": "VEC3"
    },
    {
      "bufferView": 2,
      "componentType": 5126,
      "count": 24763,
      "type": "VEC2"
    },
    {
      "bufferView": 3,
      "componentType": 5123,
      "count": 79488,
      "type": "SCALAR"
    },
    {
      "bufferView": 4,
      "componentType": 5126,
      "count": 9634,
      "max": [0.48021310567855835, 1.512618064880371, 1.0643035173416138],
      "min": [-0.566348671913147, 1.4032601118087769, 0.9027332067489624],
      "type": "VEC3"
    },
    {
      "bufferView": 5,
      "componentType": 5126,
      "count": 9634,
      "type": "VEC3"
    },
    {
      "bufferView": 6,
      "componentType": 5126,
      "count": 9634,
      "type": "VEC2"
    },
    {
      "bufferView": 7,
      "componentType": 5123,
      "count": 52224,
      "type": "SCALAR"
    },
    {
      "bufferView": 8,
      "componentType": 5126,
      "count": 453,
      "max": [0.1469602882862091, 1.1610443592071533, 1.3355376720428467],
      "min": [-0.20520088076591492, 0.8088831901550293, 0.9178865551948547],
      "type": "VEC3"
    },
    {
      "bufferView": 9,
      "componentType": 5126,
      "count": 453,
      "type": "VEC3"
    },
    {
      "bufferView": 10,
      "componentType": 5126,
      "count": 453,
      "type": "VEC2"
    },
    {
      "bufferView": 11,
      "componentType": 5123,
      "count": 2304,
      "type": "SCALAR"
    },
    {
      "bufferView": 12,
      "componentType": 5126,
      "count": 786,
      "max": [0.792507529258728, 1.2976127862930298, 0.5513539910316467],
      "min": [-0.8498468995094299, 0.8748149871826172, 0.295093297958374],
      "type": "VEC3"
    },
    {
      "bufferView": 13,
      "componentType": 5126,
      "count": 786,
      "type": "VEC3"
    },
    {
      "bufferView": 14,
      "componentType": 5126,
      "count": 786,
      "type": "VEC2"
    },
    {
      "bufferView": 15,
      "componentType": 5123,
      "count": 3456,
      "type": "SCALAR"
    },
    {
      "bufferView": 16,
      "componentType": 5126,
      "count": 2108,
      "max": [0.41300469636917114, 1.3085649013519287, 1.0937728881835938],
      "min": [-0.4644005000591278, 1.1166692972183228, 0.8950400352478027],
      "type": "VEC3"
    },
    {
      "bufferView": 17,
      "componentType": 5126,
      "count": 2108,
      "type": "VEC3"
    },
    {
      "bufferView": 18,
      "componentType": 5126,
      "count": 2108,
      "type": "VEC2"
    },
    {
      "bufferView": 19,
      "componentType": 5123,
      "count": 10752,
      "type": "SCALAR"
    },
    {
      "bufferView": 20,
      "componentType": 5126,
      "count": 1720,
      "max": [0.7737248539924622, 1.4760727882385254, 1.2530947923660278],
      "min": [-0.8271520733833313, 0.920345664024353, 0.35637325048446655],
      "type": "VEC3"
    },
    {
      "bufferView": 21,
      "componentType": 5126,
      "count": 1720,
      "type": "VEC3"
    },
    {
      "bufferView": 22,
      "componentType": 5126,
      "count": 1720,
      "type": "VEC2"
    },
    {
      "bufferView": 23,
      "componentType": 5123,
      "count": 9255,
      "type": "SCALAR"
    },
    {
      "bufferView": 24,
      "componentType": 5126,
      "count": 2760,
      "max": [0.6674211621284485, 2.306490182876587, 1.1868908405303955],
      "min": [-0.7230165004730225, -0.0510251522064209, -0.5981824398040771],
      "type": "VEC3"
    },
    {
      "bufferView": 25,
      "componentType": 5126,
      "count": 2760,
      "type": "VEC3"
    },
    {
      "bufferView": 26,
      "componentType": 5126,
      "count": 2760,
      "type": "VEC2"
    },
    {
      "bufferView": 27,
      "componentType": 5123,
      "count": 12072,
      "type": "SCALAR"
    },
    {
      "bufferView": 28,
      "componentType": 5126,
      "count": 2714,
      "max": [0.7860883474349976, 2.209970474243164, 0.9289019107818604],
      "min": [-0.8581483960151672, 0.2622104287147522, -0.7615306973457336],
      "type": "VEC3"
    },
    {
      "bufferView": 29,
      "componentType": 5126,
      "count": 2714,
      "type": "VEC3"
    },
    {
      "bufferView": 30,
      "componentType": 5123,
      "count": 16272,
      "type": "SCALAR"
    },
    {
      "bufferView": 31,
      "componentType": 5126,
      "count": 7001,
      "max": [0.6172765493392944, 2.4224138259887695, 1.1137218475341797],
      "min": [-0.7561193704605103, 1.5727496147155762, -0.7223291397094727],
      "type": "VEC3"
    },
    {
      "bufferView": 32,
      "componentType": 5126,
      "count": 7001,
      "type": "VEC3"
    },
    {
      "bufferView": 33,
      "componentType": 5123,
      "count": 41472,
      "type": "SCALAR"
    }
  ],
  "bufferViews": [
    {
      "buffer": 0,
      "byteLength": 297156,
      "byteOffset": 0
    },
    {
      "buffer": 0,
      "byteLength": 297156,
      "byteOffset": 297156
    },
    {
      "buffer": 0,
      "byteLength": 198104,
      "byteOffset": 594312
    },
    {
      "buffer": 0,
      "byteLength": 158976,
      "byteOffset": 792416
    },
    {
      "buffer": 0,
      "byteLength": 115608,
      "byteOffset": 951392
    },
    {
      "buffer": 0,
      "byteLength": 115608,
      "byteOffset": 1067000
    },
    {
      "buffer": 0,
      "byteLength": 77072,
      "byteOffset": 1182608
    },
    {
      "buffer": 0,
      "byteLength": 104448,
      "byteOffset": 1259680
    },
    {
      "buffer": 0,
      "byteLength": 5436,
      "byteOffset": 1364128
    },
    {
      "buffer": 0,
      "byteLength": 5436,
      "byteOffset": 1369564
    },
    {
      "buffer": 0,
      "byteLength": 3624,
      "byteOffset": 1375000
    },
    {
      "buffer": 0,
      "byteLength": 4608,
      "byteOffset": 1378624
    },
    {
      "buffer": 0,
      "byteLength": 9432,
      "byteOffset": 1383232
    },
    {
      "buffer": 0,
      "byteLength": 9432,
      "byteOffset": 1392664
    },
    {
      "buffer": 0,
      "byteLength": 6288,
      "byteOffset": 1402096
    },
    {
      "buffer": 0,
      "byteLength": 6912,
      "byteOffset": 1408384
    },
    {
      "buffer": 0,
      "byteLength": 25296,
      "byteOffset": 1415296
    },
    {
      "buffer": 0,
      "byteLength": 25296,
      "byteOffset": 1440592
    },
    {
      "buffer": 0,
      "byteLength": 16864,
      "byteOffset": 1465888
    },
    {
      "buffer": 0,
      "byteLength": 21504,
      "byteOffset": 1482752
    },
    {
      "buffer": 0,
      "byteLength": 20640,
      "byteOffset": 1504256
    },
    {
      "buffer": 0,
      "byteLength": 20640,
      "byteOffset": 1524896
    },
    {
      "buffer": 0,
      "byteLength": 13760,
      "byteOffset": 1545536
    },
    {
      "buffer": 0,
      "byteLength": 18510,
      "byteOffset": 1559296
    },
    {
      "buffer": 0,
      "byteLength": 33120,
      "byteOffset": 1577808
    },
    {
      "buffer": 0,
      "byteLength": 33120,
      "byteOffset": 1610928
    },
    {
      "buffer": 0,
      "byteLength": 22080,
      "byteOffset": 1644048
    },
    {
      "buffer": 0,
      "byteLength": 24144,
      "byteOffset": 1666128
    },
    {
      "buffer": 0,
      "byteLength": 32568,
      "byteOffset": 1690272
    },
    {
      "buffer": 0,
      "byteLength": 32568,
      "byteOffset": 1722840
    },
    {
      "buffer": 0,
      "byteLength": 32544,
      "byteOffset": 1755408
    },
    {
      "buffer": 0,
      "byteLength": 84012,
      "byteOffset": 1787952
    },
    {
      "buffer": 0,
      "byteLength": 84012,
      "byteOffset": 1871964
    },
    {
      "buffer": 0,
      "byteLength": 82944,
      "byteOffset": 1955976
    }
  ],
  "buffers": [
    {
      "byteLength": 2038920,
      "uri": "data:application/octet-stream;base64,"
    }
  ]
}
